<?xml version="1.0" encoding="UTF-8" standalone="no"?>
<svg
   class="svg-icon"
   style="overflow:hidden;fill:currentColor"
   viewBox="0 0 19.003298 18.940851"
   version="1.1"
   id="svg7373"
   sodipodi:docname="add-music.svg"
   width="19.003298"
   height="18.940851"
   xmlns:inkscape="http://www.inkscape.org/namespaces/inkscape"
   xmlns:sodipodi="http://sodipodi.sourceforge.net/DTD/sodipodi-0.dtd"
   xmlns="http://www.w3.org/2000/svg"
   xmlns:svg="http://www.w3.org/2000/svg">
  <defs
     id="defs7377" />
  <sodipodi:namedview
     id="namedview7375"
     pagecolor="#ffffff"
     bordercolor="#666666"
     borderopacity="1.0"
     inkscape:showpageshadow="2"
     inkscape:pageopacity="0.0"
     inkscape:pagecheckerboard="0"
     inkscape:deskcolor="#d1d1d1"
     showgrid="false" />
  <path
     d="M 2.440296,2.4091432 V 0.74766513 C 2.440296,0.33474633 2.775042,3.3074951e-8 3.187961,3.3074951e-8 3.60088,3.3074951e-8 3.935626,0.33474633 3.935626,0.74766513 V 2.4091432 h 1.671863 c 0.412919,0 0.747665,0.3347465 0.747665,0.747665 0,0.4129188 -0.334746,0.7476651 -0.747665,0.7476651 H 3.935626 v 1.6822466 c 0,0.412919 -0.334746,0.747665 -0.747665,0.747665 -0.412919,0 -0.747665,-0.334746 -0.747665,-0.747665 V 3.9044733 H 0.74766505 C 0.33474605,3.9044733 4.9954224e-8,3.569727 4.9954224e-8,3.1568082 4.9954224e-8,2.7438897 0.33474605,2.4091432 0.74766505,2.4091432 Z m 6.0747792,6.4527237 v 7.1506281 c 0,1.617282 -1.3110722,2.928356 -2.9283552,2.928356 -1.617282,0 -2.928355,-1.311074 -2.928355,-2.928356 0,-1.617282 1.311073,-2.928356 2.928355,-2.928356 0.453792,0 0.883491,0.10322 1.266877,0.287478 V 8.1759679 a 0.82793529,0.82793529 0 0 1 0,-0.02991 V 4.3320967 c 0,-0.4040301 0.290676,-0.749472 0.6887662,-0.8185276 l 10.4880808,-1.81909 c 0.507997,-0.08812 0.972711,0.3029498 0.972711,0.8185062 v 3.8281906 c 1.88e-4,0.01001 1.88e-4,0.01998 0,0.02991 V 14.17428 c 0,0.01176 -2.48e-4,0.02353 -7.25e-4,0.0352 -0.03517,1.586712 -1.332445,2.862208 -2.927629,2.862208 -1.617283,0 -2.928355,-1.311071 -2.928355,-2.928354 0,-1.617283 1.311072,-2.928355 2.928355,-2.928355 0.45379,0 0.883492,0.103219 1.266877,0.287474 V 7.3412469 Z m 0,-1.685943 8.8266028,-1.520627 V 3.5002153 L 8.5150752,5.0311219 Z M 5.58672,17.279371 c 0.69969,0 1.266877,-0.567187 1.266877,-1.266876 0,-0.699689 -0.567187,-1.266876 -1.266877,-1.266876 -0.69969,0 -1.266877,0.567187 -1.266877,1.266876 0,0.699689 0.567187,1.266876 1.266877,1.266876 z m 10.488081,-1.869162 c 0.69969,0 1.266877,-0.567187 1.266877,-1.266878 0,-0.699688 -0.567187,-1.266877 -1.266877,-1.266877 -0.69969,0 -1.266877,0.567189 -1.266877,1.266877 0,0.699691 0.567187,1.266878 1.266877,1.266878 z"
     id="path7371"
     style="fill:#ffffff;fill-opacity:1;stroke-width:0.999998"
     inkscape:export-filename="../Documents/Inkscape/path7371.svg"
     inkscape:export-xdpi="96"
     inkscape:export-ydpi="96" />
</svg>
